<?xml version="1.0" standalone="no"?>
<!DOCTYPE svg PUBLIC "-//W3C//DTD SVG 20010904//EN"
 "http://www.w3.org/TR/2001/REC-SVG-20010904/DTD/svg10.dtd">
<svg version="1.0" xmlns="http://www.w3.org/2000/svg"
 width="278.000000pt" height="278.000000pt" viewBox="0 0 278.000000 278.000000"
 preserveAspectRatio="xMidYMid meet">
<metadata>
Created by potrace 1.14, written by Peter Selinger 2001-2017
</metadata>
<g transform="translate(0.000000,278.000000) scale(0.100000,-0.100000)"
fill="#000000" stroke="none">
<path d="M0 1390 l0 -1100 1390 0 1390 0 0 1100 0 1100 -1390 0 -1390 0 0
-1100z m1800 363 c0 -4 -43 -160 -96 -345 l-97 -338 -63 0 c-40 0 -64 4 -64
11 0 6 38 142 84 303 47 160 89 310 96 334 l11 42 64 0 c36 0 65 -3 65 -7z
m-1095 -22 c47 -22 89 -64 104 -104 20 -52 16 -57 -48 -57 -51 0 -61 3 -75 25
-20 31 -75 46 -121 34 -40 -11 -59 -40 -51 -75 7 -27 18 -33 134 -86 109 -48
150 -80 174 -136 41 -92 6 -188 -87 -239 -42 -23 -62 -27 -125 -27 -119 0
-206 56 -239 153 -22 66 -18 71 52 71 62 0 63 0 72 -32 15 -46 55 -72 115 -72
38 0 55 5 75 24 55 52 15 111 -110 161 -44 18 -97 44 -117 58 -122 86 -96 259
47 309 50 17 155 14 200 -7z m1308 -13 c26 -34 15 -75 -24 -97 -73 -41 -142
54 -83 114 26 25 83 16 107 -17z m317 -93 l0 -75 60 0 60 0 0 -50 0 -50 -60 0
-61 0 3 -127 3 -128 28 -13 c20 -10 36 -11 56 -4 27 9 30 7 51 -30 27 -48 19
-61 -52 -79 -58 -16 -113 -2 -163 42 -45 40 -55 79 -55 222 l0 117 -45 0 -45
0 0 50 0 50 40 0 c49 0 60 18 60 94 l0 56 60 0 60 0 0 -75z m-1087 -76 c51
-14 115 -73 140 -129 25 -57 26 -158 2 -218 -24 -58 -93 -117 -155 -132 -56
-13 -100 -7 -147 22 l-33 20 0 -121 0 -121 -60 0 -60 0 0 340 0 340 50 0 c28
0 50 -3 50 -7 0 -5 4 -14 9 -21 6 -10 18 -8 56 12 52 28 89 32 148 15z m777
-239 l0 -240 -65 0 -65 0 0 240 0 240 65 0 65 0 0 -240z"/>
<path d="M1109 1426 c-24 -14 -39 -38 -54 -93 -9 -32 11 -96 38 -122 37 -34
85 -37 127 -9 47 32 62 63 57 121 -3 38 -11 56 -34 79 -36 35 -95 46 -134 24z"/>
</g>
</svg>
